<svg width="296" height="200" viewBox="0 0 296 200" fill="none" xmlns="http://www.w3.org/2000/svg">
<g opacity="0.2">
<path opacity="0.1" d="M0 68.6262L81.7415 117.281V199.546L0 150.451V68.6262Z" fill="#E7FAF4"/>
<path opacity="0.2" d="M164.197 68.6755L82.4576 117.279V199.458L164.197 150.415V68.6755Z" fill="#E7FAF4"/>
<path opacity="0.3" d="M0 102.896L81.7415 53.8008L163.483 102.896V103.263L81.7415 152.358L0 103.263V102.896Z" fill="#E7FAF4"/>
<path opacity="0.1" d="M140.72 20.3582L174.802 40.6448V74.9459L140.72 54.4755V20.3582Z" fill="#E7FAF4"/>
<path opacity="0.2" d="M209.765 20.3787L175.684 40.6441V74.9092L209.765 54.4602V20.3787Z" fill="#E7FAF4"/>
<path opacity="0.3" d="M140.72 20.4704L174.802 0L208.885 20.4704V20.6235L174.802 41.0939L140.72 20.6235V20.4704Z" fill="#E7FAF4"/>
<path opacity="0.1" d="M226.859 122.411L260.942 142.698V176.999L226.859 156.528V122.411Z" fill="#E7FAF4"/>
<path opacity="0.2" d="M293.905 122.431L259.823 142.697V176.962L293.905 156.513V122.431Z" fill="#E7FAF4"/>
<path opacity="0.3" d="M226.859 122.523L260.942 102.053L295.024 122.523V122.676L260.942 143.147L226.859 122.676V122.523Z" fill="#E7FAF4"/>
</g>
</svg>
