<svg width="16" height="16" viewBox="0 0 16 16" fill="none" xmlns="http://www.w3.org/2000/svg">
<path d="M9 6.5C9 6.63261 8.94732 6.75979 8.85355 6.85355C8.75979 6.94732 8.63261 7 8.5 7H3.49994C3.36733 7 3.24015 6.94732 3.14639 6.85355C3.05262 6.75979 2.99994 6.63261 2.99994 6.5C2.99994 6.36739 3.05262 6.24021 3.14639 6.14645C3.24015 6.05268 3.36733 6 3.49994 6H8.5C8.63261 6 8.75979 6.05268 8.85355 6.14645C8.94732 6.24021 9 6.36739 9 6.5ZM8.5 7.99988H3.49994C3.36733 7.99988 3.24015 8.05256 3.14639 8.14633C3.05262 8.2401 2.99994 8.36727 2.99994 8.49988C2.99994 8.63249 3.05262 8.75967 3.14639 8.85343C3.24015 8.9472 3.36733 8.99988 3.49994 8.99988H8.5C8.63261 8.99988 8.75979 8.9472 8.85355 8.85343C8.94732 8.75967 9 8.63249 9 8.49988C9 8.36727 8.94732 8.2401 8.85355 8.14633C8.75979 8.05256 8.63261 7.99988 8.5 7.99988ZM8.5 10.0001H3.49994C3.36733 10.0001 3.24015 10.0528 3.14639 10.1466C3.05262 10.2403 2.99994 10.3675 2.99994 10.5001C2.99994 10.6327 3.05262 10.7599 3.14639 10.8537C3.24015 10.9474 3.36733 11.0001 3.49994 11.0001H8.5C8.63261 11.0001 8.75979 10.9474 8.85355 10.8537C8.94732 10.7599 9 10.6327 9 10.5001C9 10.3675 8.94732 10.2403 8.85355 10.1466C8.75979 10.0528 8.63261 10.0001 8.5 10.0001ZM8.5 12H3.49994C3.36733 12 3.24015 12.0527 3.14639 12.1464C3.05262 12.2402 2.99994 12.3674 2.99994 12.5C2.99994 12.6326 3.05262 12.7598 3.14639 12.8536C3.24015 12.9473 3.36733 13 3.49994 13H8.5C8.63261 13 8.75979 12.9473 8.85355 12.8536C8.94732 12.7598 9 12.6326 9 12.5C9 12.3674 8.94732 12.2402 8.85355 12.1464C8.75979 12.0527 8.63261 12 8.5 12ZM16 2V11C16 11.5304 15.7893 12.0391 15.4142 12.4142C15.0391 12.7893 14.5304 13 14 13H12V14C12 14.5304 11.7893 15.0391 11.4142 15.4142C11.0391 15.7893 10.5304 16 10 16H2C1.46957 16 0.960859 15.7893 0.585786 15.4142C0.210714 15.0391 0 14.5304 0 14V5C0 4.46957 0.210714 3.96086 0.585786 3.58579C0.960859 3.21071 1.46957 3 2 3H4V2C4 1.46957 4.21071 0.960859 4.58579 0.585786C4.96086 0.210714 5.46957 0 6 0H14C14.5304 0 15.0391 0.210714 15.4142 0.585786C15.7893 0.960859 16 1.46957 16 2ZM11 5C10.9997 4.73488 10.8942 4.4807 10.7068 4.29323C10.5193 4.10576 10.2651 4.0003 10 4H2C1.73488 4.0003 1.4807 4.10576 1.29323 4.29323C1.10576 4.4807 1.0003 4.73488 1 5V14C1.0003 14.2651 1.10576 14.5193 1.29323 14.7068C1.4807 14.8942 1.73488 14.9997 2 15H10C10.2651 14.9997 10.5193 14.8942 10.7068 14.7068C10.8942 14.5193 10.9997 14.2651 11 14V5ZM15 2C14.9997 1.73488 14.8942 1.4807 14.7068 1.29323C14.5193 1.10576 14.2651 1.0003 14 1H6C5.73488 1.0003 5.4807 1.10576 5.29323 1.29323C5.10576 1.4807 5.0003 1.73488 5 2V3H10C10.5304 3 11.0391 3.21071 11.4142 3.58579C11.7893 3.96086 12 4.46957 12 5V12H14C14.2651 11.9997 14.5193 11.8942 14.7068 11.7068C14.8942 11.5193 14.9997 11.2651 15 11V2Z" fill="white"/>
</svg>
