<svg width="20" height="21" viewBox="0 0 20 21" fill="none" xmlns="http://www.w3.org/2000/svg">
<path fill-rule="evenodd" clip-rule="evenodd" d="M14.1162 2.8999C15.2337 2.8999 16.3087 3.34157 17.0995 4.13407C17.8912 4.9249 18.3337 5.99157 18.3337 7.10824V13.6916C18.3337 16.0166 16.442 17.8999 14.1162 17.8999H5.88366C3.55783 17.8999 1.66699 16.0166 1.66699 13.6916V7.10824C1.66699 4.78324 3.54949 2.8999 5.88366 2.8999H14.1162ZM15.442 8.3499L15.5087 8.28324C15.7078 8.04157 15.7078 7.69157 15.4995 7.4499C15.3837 7.32574 15.2245 7.2499 15.0587 7.23324C14.8837 7.22407 14.717 7.28324 14.5912 7.3999L10.8337 10.3999C10.3503 10.8007 9.65783 10.8007 9.16699 10.3999L5.41699 7.3999C5.15783 7.20824 4.79949 7.23324 4.58366 7.45824C4.35866 7.68324 4.33366 8.04157 4.52449 8.29157L4.63366 8.3999L8.42533 11.3582C8.89199 11.7249 9.45783 11.9249 10.0503 11.9249C10.6412 11.9249 11.217 11.7249 11.6828 11.3582L15.442 8.3499Z" fill="#704B8D"/>
</svg>
