<svg width="25" height="25" viewBox="0 0 25 25" fill="none" xmlns="http://www.w3.org/2000/svg">
<g clip-path="url(#clip0_1_4005)">
<path d="M24.0078 12.4244C24.0078 11.4411 23.9295 10.7236 23.7598 9.97949H12.7295V14.4175H19.2041C19.0736 15.5204 18.3687 17.1813 16.8022 18.2974L16.7802 18.446L20.2678 21.1962L20.5095 21.2207C22.7285 19.1346 24.0078 16.0651 24.0078 12.4244Z" fill="#4285F4"/>
<path d="M12.7296 24.1175C15.9016 24.1175 18.5645 23.0545 20.5095 21.2209L16.8023 18.2975C15.8102 19.0018 14.4787 19.4934 12.7296 19.4934C9.6228 19.4934 6.98598 17.4073 6.04603 14.5239L5.90825 14.5358L2.2818 17.3927L2.23438 17.5269C4.1663 21.4334 8.13462 24.1175 12.7296 24.1175Z" fill="#34A853"/>
<path d="M6.04621 14.524C5.7982 13.7799 5.65466 12.9826 5.65466 12.1588C5.65466 11.3349 5.7982 10.5377 6.03316 9.79361L6.02659 9.63514L2.3547 6.73242L2.23457 6.79059C1.43833 8.41169 0.981445 10.2321 0.981445 12.1588C0.981445 14.0855 1.43833 15.9058 2.23457 17.5269L6.04621 14.524Z" fill="#FBBC05"/>
<path d="M12.7295 4.82398C14.9356 4.82398 16.4237 5.79397 17.2722 6.60456L20.5878 3.30923C18.5515 1.38255 15.9015 0.199951 12.7295 0.199951C8.13462 0.199951 4.1663 2.88401 2.23438 6.79051L6.03297 9.79354C6.98597 6.91015 9.62279 4.82398 12.7295 4.82398Z" fill="#EB4335"/>
</g>
<defs>
<clipPath id="clip0_1_4005">
<rect width="23.04" height="24" fill="white" transform="translate(0.97998 0.199951)"/>
</clipPath>
</defs>
</svg>
