<svg width="176" height="149" viewBox="0 0 176 149" fill="none" xmlns="http://www.w3.org/2000/svg">
<g clip-path="url(#clip0_1_4170)">
<path d="M117.254 149C85.7174 149 60.1523 144.038 60.1523 137.917C60.1523 131.797 85.7174 126.835 117.254 126.835C148.79 126.835 174.355 131.797 174.355 137.917C174.355 144.038 148.79 149 117.254 149Z" fill="#3F3D56"/>
<path d="M162.962 135.249C162.962 135.249 173.549 132.415 175.547 132.624C177.544 132.834 172.52 122.904 169.175 124.115C165.829 125.326 161.368 128.511 158.818 124.013C156.268 119.514 154.838 117.092 151.731 117.334C148.624 117.576 144.322 115.399 141.218 117.334C138.113 119.27 135.932 121.657 131.645 121.554C127.357 121.451 123.292 111.766 119.952 115.641C116.613 119.516 112.607 123.06 109.468 121.771C106.328 120.483 102.746 122.42 99.8781 124.6C97.0106 126.779 91.9911 125.81 90.0801 124.115C88.1692 122.42 86.7324 121.209 82.6714 121.447C78.6104 121.685 65.7038 124.595 60.9234 128.22C56.143 131.844 67.1365 136.454 72.3952 136.454C77.6539 136.454 78.6083 137.907 83.1496 140.087C87.6909 142.266 95.1059 138.876 100.356 142.508C105.607 146.141 112.313 140.571 121.383 142.508C130.453 144.446 128.552 147.108 133.811 145.176C139.07 143.245 137.157 142.508 144.805 142.028C152.453 141.548 160.816 143.239 161.533 140.091C162.25 136.942 167.025 136.216 169.894 135.247C172.764 134.278 162.962 135.249 162.962 135.249Z" fill="#3F3D56"/>
<path d="M31.0883 109.127L30.676 108.865L30.5544 108.787C31.4571 108.634 32.2807 108.18 32.8896 107.499C33.4985 106.818 33.8564 105.951 33.9044 105.041C33.9524 104.131 33.6876 103.231 33.1537 102.491C32.6197 101.75 31.8484 101.213 30.9667 100.967L30.9873 102.621L30.0741 100.821C29.5451 100.797 29.0165 100.876 28.5183 101.055C28.0202 101.234 27.5623 101.509 27.1708 101.864C26.7794 102.219 26.462 102.647 26.2368 103.124C26.0116 103.602 25.8831 104.118 25.8585 104.645C25.8585 104.723 25.8585 104.797 25.8585 104.873C25.5365 104.524 25.2684 104.13 25.0628 103.703C24.6752 102.843 24.669 101.872 24.6979 100.69C24.7597 98.3504 24.8607 95.9922 24.9927 93.6403C25.9461 93.5352 26.8306 93.0949 27.487 92.3985C28.1434 91.7021 28.5286 90.7953 28.5734 89.8414C28.5796 89.7204 28.5796 89.5991 28.5734 89.4781C28.5734 89.4473 28.5734 89.4165 28.5734 89.3878C28.5734 89.2708 28.5548 89.1559 28.5363 89.041C28.5372 89.0225 28.5372 89.004 28.5363 88.9855C28.5218 88.8891 28.5012 88.7947 28.4785 88.7003C28.4785 88.6654 28.46 88.6305 28.4517 88.5956C28.4229 88.493 28.392 88.3904 28.3548 88.2919C28.3425 88.259 28.3301 88.2282 28.3157 88.1954C28.2868 88.1215 28.2559 88.0497 28.2229 87.9778C28.2064 87.9409 28.1899 87.9019 28.1714 87.865L28.157 87.8362C27.7304 86.9985 27.0225 86.3361 26.1563 85.9642C25.2901 85.5922 24.3204 85.5342 23.4157 85.8003L23.4425 87.9532L22.5396 86.1759C21.9546 86.5114 21.4637 86.988 21.1121 87.5618C20.7605 88.1356 20.5596 88.7882 20.5276 89.4596C20.511 89.8075 20.5408 90.156 20.6163 90.4961C20.6163 90.5248 20.6328 90.5515 20.639 90.5802C20.6451 90.6089 20.6658 90.6869 20.6802 90.7382C20.6946 90.7896 20.7193 90.8716 20.742 90.9435C20.7647 91.0153 20.775 91.042 20.7936 91.0913C20.8121 91.1405 20.8533 91.2308 20.8843 91.2965C20.9028 91.3355 20.9193 91.3765 20.9379 91.4176C20.9894 91.5202 21.0451 91.6228 21.1048 91.7213C21.1254 91.7562 21.1502 91.789 21.1708 91.8219C21.2141 91.8876 21.2574 91.9553 21.3048 92.0271C21.3522 92.099 21.3646 92.1051 21.3955 92.1421C21.4264 92.179 21.4841 92.2529 21.5316 92.3062C21.579 92.3596 21.5996 92.3801 21.6346 92.4171C21.6697 92.454 21.7336 92.5197 21.7872 92.5689L21.8923 92.6675L22.0758 92.8193L22.1706 92.8932C22.2675 92.963 22.3644 93.0287 22.4674 93.0984L22.5252 93.1313C22.6099 93.1829 22.6973 93.2302 22.787 93.2729L22.9024 93.3242C22.9746 93.357 23.0488 93.3899 23.125 93.4165L23.257 93.4638C23.3312 93.4904 23.4054 93.513 23.4817 93.5335L23.6177 93.5684C23.7002 93.5889 23.7847 93.6054 23.8692 93.6197H23.8857C23.8307 94.6131 23.7813 95.6057 23.7373 96.5977C23.4971 96.1062 23.1586 95.6687 22.7425 95.3122C22.3265 94.9557 21.8415 94.6876 21.3176 94.5244C20.7937 94.3613 20.2418 94.3064 19.6958 94.3633C19.1498 94.4202 18.6212 94.5876 18.1426 94.8552L18.8538 96.8009L17.3881 95.3991C16.6022 96.1143 16.1337 97.1108 16.0853 98.1698C16.067 98.5415 16.1017 98.9139 16.1884 99.276C16.3708 100.061 16.7867 100.774 17.3818 101.32C17.9769 101.867 18.7235 102.223 19.5245 102.341C20.3254 102.459 21.1436 102.334 21.8722 101.982C22.6008 101.631 23.2062 101.069 23.6095 100.37C23.6095 100.47 23.6095 100.575 23.6095 100.672C23.5827 101.714 23.5497 103.011 24.0712 104.161C24.4443 104.907 24.9467 105.583 25.5554 106.155C25.9224 106.527 26.3017 106.886 26.6892 107.235C27.0726 107.746 27.5721 108.158 28.1467 108.44C28.7857 108.93 29.4467 109.389 30.1297 109.817L30.4864 110.075C30.8698 110.313 31.2635 110.556 31.649 110.808L31.4429 110.792C30.5886 110.752 29.7438 110.984 29.0305 111.453C28.3172 111.923 27.7723 112.606 27.4746 113.404L29.9937 115.457L27.2211 114.816C27.2236 115.494 27.3979 116.159 27.7279 116.752C28.0579 117.344 28.5328 117.843 29.1085 118.204C29.6843 118.565 30.3423 118.775 31.0213 118.815C31.7004 118.855 32.3787 118.723 32.993 118.433C32.9291 118.508 32.8673 118.586 32.8055 118.664L32.4385 119.12C30.7894 121.189 30.3421 123.151 31.1543 124.647L32.1417 124.115C31.3522 122.658 32.5395 120.795 33.3188 119.806C33.4363 119.656 33.5579 119.506 33.6795 119.356C34.7267 118.061 35.9141 116.592 35.8852 114.79C35.8646 112.072 33.2157 110.439 31.0883 109.127Z" fill="#F1F1F1"/>
<path d="M51.0119 106.391L51.6448 105.997C51.7066 105.96 51.7664 105.921 51.8262 105.882C50.4758 105.652 49.2443 104.971 48.334 103.952C47.4236 102.932 46.8885 101.635 46.8166 100.273C46.7447 98.9108 47.1402 97.5648 47.9381 96.4561C48.7361 95.3473 49.8891 94.5417 51.2077 94.1716L51.1768 96.6488L52.5435 93.954H52.56C53.3521 93.9173 54.1437 94.0363 54.8896 94.3043C55.6355 94.5722 56.3211 94.9837 56.9073 95.5154C57.4934 96.0472 57.9686 96.6886 58.3058 97.4032C58.6429 98.1178 58.8353 98.8915 58.8721 99.6801C58.8721 99.795 58.8721 99.9079 58.8721 100.021C59.3549 99.4978 59.7571 98.9065 60.0657 98.266C60.6449 96.9812 60.6552 95.5261 60.6099 93.7509C60.5192 90.2455 60.3666 86.7134 60.1687 83.1936C58.7418 83.0355 57.4183 82.376 56.436 81.3337C55.4536 80.2913 54.8767 78.9344 54.809 77.5066C54.809 77.3219 54.809 77.1413 54.809 76.9606V76.8252C54.8214 76.6507 54.8379 76.4783 54.8647 76.308C54.8647 76.2793 54.8647 76.2526 54.8791 76.2239C54.9039 76.0802 54.9348 75.9386 54.9698 75.797C54.9822 75.7436 54.9946 75.6923 55.009 75.6389C55.0523 75.485 55.0976 75.3352 55.1533 75.1854C55.1698 75.1361 55.1904 75.0889 55.211 75.0397C55.2543 74.9288 55.2996 74.8221 55.3491 74.7154C55.3759 74.6579 55.4007 74.6025 55.4275 74.5471C55.4352 74.5331 55.442 74.5187 55.4481 74.504C55.9308 73.5563 56.6574 72.7531 57.5537 72.1762C58.45 71.5993 59.4839 71.2694 60.5501 71.2202C61.2211 71.1902 61.8926 71.2706 62.5373 71.4583L62.4981 74.6826L63.8484 72.0145C64.9606 72.6463 65.8407 73.6158 66.36 74.7811C66.8792 75.9465 67.0104 77.2468 66.7344 78.4917C66.7344 78.5327 66.7117 78.5738 66.7014 78.6169C66.6828 78.6969 66.6622 78.7749 66.6416 78.8529C66.621 78.9309 66.5797 79.0581 66.5468 79.1505C66.5138 79.2429 66.4973 79.2983 66.4684 79.3701C66.4293 79.4768 66.3819 79.5753 66.3344 79.6841C66.3076 79.7457 66.2829 79.8072 66.254 79.8668C66.1778 80.0207 66.0953 80.1726 66.0046 80.3203C65.9737 80.3737 65.9386 80.423 65.9057 80.4722C65.8397 80.5728 65.7758 80.6774 65.6995 80.7677C65.6562 80.8273 65.6088 80.8827 65.5635 80.9401C65.5181 80.9976 65.4295 81.1064 65.3573 81.1864L65.2048 81.3527C65.1306 81.4307 65.0543 81.5066 64.976 81.5805L64.8172 81.7262C64.7286 81.8042 64.6358 81.8801 64.541 81.9519C64.4936 81.9889 64.4482 82.0279 64.3988 82.0648C64.2565 82.1695 64.1102 82.2701 63.9576 82.3604C63.9288 82.3788 63.8978 82.3932 63.869 82.4096C63.7412 82.4835 63.6113 82.5553 63.4794 82.6149L63.3041 82.6928C63.1949 82.7421 63.0856 82.7893 62.9723 82.8303C62.9063 82.857 62.8403 82.8796 62.7661 82.9022C62.6548 82.9391 62.5414 82.974 62.428 83.0048L62.2219 83.0582C62.0962 83.0869 61.9704 83.1115 61.8447 83.1341H61.8199C61.9051 84.62 61.9793 86.1059 62.0426 87.5918C62.4026 86.856 62.9099 86.2012 63.5332 85.6676C64.1566 85.134 64.8829 84.7328 65.6676 84.4887C66.4523 84.2447 67.2788 84.1628 68.0964 84.2482C68.914 84.3336 69.7055 84.5844 70.4222 84.9853L69.3544 87.8955L71.5498 85.798C72.133 86.3281 72.6054 86.9675 72.94 87.6796C73.2746 88.3917 73.4649 89.1625 73.4999 89.9479C73.5279 90.5044 73.4765 91.062 73.3474 91.6041C73.0727 92.7774 72.4501 93.8414 71.5603 94.6579C70.6705 95.4744 69.5547 96.0056 68.3577 96.1827C67.1608 96.3597 65.938 96.1744 64.8482 95.6507C63.7585 95.127 62.852 94.2891 62.2466 93.246C62.2466 93.3979 62.2466 93.5497 62.2611 93.6995C62.3002 95.2614 62.3518 97.2029 61.5705 98.9371C61.0407 100.113 60.1873 101.065 59.3462 101.921C58.7965 102.479 58.2303 103.019 57.6476 103.538C57.0755 104.304 56.3286 104.923 55.4687 105.345C54.5067 106.077 53.5158 106.761 52.4961 107.397L51.8571 107.791C51.284 108.146 50.6944 108.511 50.1172 108.889C50.2182 108.889 50.3234 108.868 50.4223 108.864C51.7017 108.804 52.967 109.151 54.0354 109.854C55.1038 110.557 55.9198 111.581 56.3654 112.776L52.5951 115.832L56.7447 114.876C56.7427 115.892 56.4822 116.891 55.9875 117.78C55.4927 118.669 54.7799 119.419 53.9154 119.96C53.0509 120.5 52.0629 120.814 51.0437 120.872C50.0245 120.93 49.0072 120.729 48.0867 120.29C48.1816 120.405 48.2743 120.52 48.3671 120.637C48.5526 120.866 48.7381 121.094 48.9175 121.32C51.3726 124.417 52.055 127.354 50.8408 129.595L49.3607 128.801C50.5439 126.619 48.7649 123.828 47.5982 122.358C47.423 122.135 47.2416 121.911 47.0581 121.685C45.4893 119.746 43.7124 117.546 43.7598 114.849C43.8608 110.804 47.8249 108.364 51.0119 106.391Z" fill="#F1F1F1"/>
<path d="M81.5931 137.417C81.5931 137.417 88.7277 135.537 90.0718 135.674C91.4158 135.812 88.033 129.242 85.7799 130.042C83.5267 130.843 80.5191 132.953 78.802 129.975C77.0848 126.997 76.1221 125.394 74.0257 125.554C71.9292 125.714 69.035 124.271 66.9426 125.554C64.8503 126.837 63.3825 128.415 60.4924 128.347C57.6023 128.28 54.8668 121.868 52.6137 124.431C50.3605 126.995 47.6663 129.345 45.5513 128.491C43.4362 127.637 41.0161 128.92 39.0887 130.363C37.1613 131.805 33.7764 131.165 32.4921 130.042C31.2079 128.92 30.237 128.119 27.4994 128.28C24.7618 128.44 16.0688 130.363 12.8489 132.768C9.62894 135.173 17.0356 138.217 20.5771 138.217C24.1187 138.217 24.7639 139.179 27.823 140.622C30.8822 142.065 35.8729 139.82 39.4144 142.225C42.9559 144.631 47.4642 140.942 53.5825 142.225C59.7008 143.508 58.4124 145.271 61.956 143.988C65.4996 142.705 64.2092 142.225 69.3607 141.905C74.5122 141.585 80.1481 142.705 80.6325 140.622C81.1169 138.539 84.3431 138.057 86.2664 137.417C88.1897 136.776 81.5931 137.417 81.5931 137.417Z" fill="#3F3D56"/>
<path d="M22.5044 115.256L25.2667 123.684L25.3863 124.052L30.0101 138.164L37.9259 143.49L76.3652 127.397L72.7227 112.731L72.5289 111.959L70.5788 104.109L70.5747 104.091L58.7421 102.617L22.5044 115.256Z" fill="#F8CE6D"/>
<path opacity="0.1" d="M22.5047 115.256L30.0103 138.164L37.9262 143.49L30.6597 118.49L70.5791 104.109L70.575 104.091L58.7424 102.617L22.5047 115.256Z" fill="black"/>
<path opacity="0.1" d="M61.9538 105.681L62.5908 105.295L56.2045 104.628L28.8454 114.258L29.6163 114.66L56.6065 105.185L61.9538 105.681Z" fill="black"/>
<path opacity="0.1" d="M25.2667 123.684L33.2568 127.426L72.5289 111.959L72.7227 112.731L33.4155 127.976L25.3862 124.052" fill="black"/>
<path d="M67.7857 109.646C67.5605 108.924 68.0125 108.143 68.7954 107.901C69.5782 107.659 70.3954 108.048 70.6206 108.77C70.8458 109.492 70.3937 110.273 69.6109 110.515C68.828 110.757 68.0109 110.368 67.7857 109.646Z" fill="#3F3D56"/>
<path d="M33.1724 122.989C32.9472 122.267 33.3993 121.486 34.1821 121.244C34.9649 121.002 35.7821 121.391 36.0073 122.113C36.2325 122.835 35.7804 123.617 34.9976 123.859C34.2147 124.101 33.3976 123.711 33.1724 122.989Z" fill="#3F3D56"/>
<path d="M38.6426 139.561C38.4174 138.839 38.8695 138.057 39.6523 137.815C40.4352 137.573 41.2523 137.963 41.4775 138.685C41.7027 139.407 41.2506 140.188 40.4678 140.43C39.6849 140.672 38.8678 140.283 38.6426 139.561Z" fill="#3F3D56"/>
<path d="M72.0205 125.657C71.7953 124.935 72.2474 124.153 73.0302 123.911C73.8131 123.669 74.6303 124.059 74.8554 124.781C75.0806 125.503 74.6286 126.284 73.8457 126.526C73.0629 126.768 72.2457 126.379 72.0205 125.657Z" fill="#3F3D56"/>
<path d="M65.8974 104.953C65.9799 105.219 66.6416 104.953 67.4827 104.69C68.3237 104.427 68.9793 104.14 68.8968 103.869C68.8143 103.598 68.0228 103.458 67.1817 103.719C66.3406 103.98 65.8129 104.686 65.8974 104.953Z" fill="#3F3D56"/>
<path d="M61.6627 103.991C61.5797 103.725 62.1311 103.318 62.8944 103.082C63.6576 102.846 64.3437 102.87 64.4268 103.136C64.5098 103.403 63.9584 103.81 63.1951 104.046C62.4318 104.282 61.7458 104.257 61.6627 103.991Z" fill="#3F3D56"/>
<path d="M48.0949 111.442C48.1773 111.709 49.004 111.463 49.8059 111.214C50.6077 110.966 51.2324 110.689 51.1499 110.422C51.0674 110.155 50.3068 110.012 49.5008 110.252C48.6948 110.492 48.0083 111.171 48.0949 111.442Z" fill="#3F3D56"/>
<path d="M30.9933 117.556C31.0861 117.856 31.9643 117.595 32.8156 117.332C33.667 117.07 34.3287 116.768 34.2359 116.468C34.1432 116.169 33.3289 115.986 32.4775 116.249C31.6262 116.511 30.8985 117.256 30.9933 117.556Z" fill="#3F3D56"/>
<path d="M25.9925 116.838C26.0873 117.137 26.9634 116.877 27.8148 116.614C28.6662 116.351 29.3299 116.05 29.2351 115.75C29.1403 115.45 28.3281 115.268 27.4767 115.53C26.6254 115.793 25.8997 116.538 25.9925 116.838Z" fill="#3F3D56"/>
<path d="M23.5271 115.374C23.6219 115.674 24.3516 115.461 25.0484 115.243C25.7452 115.025 26.2853 114.763 26.2007 114.463C26.1162 114.163 25.4133 113.942 24.7103 114.159C24.0074 114.377 23.4343 115.075 23.5271 115.374Z" fill="#3F3D56"/>
<path d="M40.0408 109.378C40.115 109.616 40.8654 109.396 41.5786 109.172C42.2919 108.949 42.8629 108.698 42.7866 108.46C42.7103 108.222 42.0301 108.085 41.3086 108.306C40.5871 108.528 39.9686 109.137 40.0408 109.378Z" fill="#3F3D56"/>
<path d="M56.0905 103.751C56.0075 103.485 56.4743 103.104 57.1332 102.9C57.7921 102.697 58.3935 102.747 58.4766 103.014C58.5596 103.28 58.0928 103.661 57.4339 103.865C56.775 104.068 56.1736 104.018 56.0905 103.751Z" fill="#3F3D56"/>
<path opacity="0.1" d="M48.6269 119.498C48.539 119.216 48.5503 118.912 48.659 118.638C48.7677 118.363 48.9673 118.133 49.2247 117.987C49.102 117.848 49.01 117.685 48.9546 117.509C48.8878 117.295 48.8778 117.067 48.9258 116.848C48.9738 116.628 49.0781 116.425 49.2284 116.258C49.3788 116.091 49.5702 115.966 49.7838 115.894C49.9973 115.823 50.2259 115.808 50.4471 115.851C50.3602 115.553 50.3834 115.234 50.5125 114.951C50.6417 114.669 50.8681 114.442 51.1509 114.312C51.4336 114.181 51.7539 114.156 52.0537 114.241C52.3535 114.326 52.6128 114.514 52.7848 114.773C52.9524 114.652 53.1464 114.573 53.3509 114.542C53.5553 114.511 53.7643 114.529 53.9605 114.594C54.1568 114.659 54.3346 114.77 54.4792 114.917C54.6239 115.064 54.7313 115.243 54.7926 115.44C54.7926 115.469 54.807 115.495 54.8132 115.522L54.8585 115.545C55.0033 115.415 55.1753 115.319 55.3621 115.264C55.5489 115.21 55.7457 115.197 55.938 115.228C56.1302 115.259 56.3131 115.332 56.4731 115.443C56.6331 115.553 56.7662 115.698 56.8625 115.867C56.9589 116.035 57.0161 116.223 57.0299 116.416C57.0437 116.61 57.0138 116.804 56.9424 116.984C56.871 117.165 56.7599 117.327 56.6172 117.459C56.4746 117.591 56.304 117.689 56.1181 117.747C56.0509 117.768 55.9819 117.783 55.9119 117.792L55.8954 118.268L49.6576 120.807L49.6988 120.396C49.4528 120.363 49.2214 120.261 49.0316 120.102C48.8417 119.943 48.7014 119.733 48.6269 119.498Z" fill="black"/>
<path opacity="0.1" d="M50.0845 123.574C50.2179 123.837 50.4377 124.048 50.7075 124.171C50.9773 124.293 51.2811 124.321 51.5687 124.249C51.5755 124.433 51.6226 124.614 51.7068 124.778C51.7836 124.931 51.8898 125.066 52.0194 125.178C52.1489 125.289 52.2993 125.374 52.4618 125.428C52.6244 125.481 52.7959 125.503 52.9667 125.49C53.1374 125.478 53.304 125.432 53.457 125.355C53.648 125.259 53.8128 125.118 53.9373 124.945C54.0831 125.218 54.3222 125.43 54.6113 125.543C54.9005 125.656 55.2208 125.663 55.5144 125.561C55.8079 125.46 56.0555 125.258 56.2123 124.991C56.3692 124.724 56.425 124.41 56.3697 124.105C56.5132 124.085 56.6525 124.042 56.782 123.978C57.0905 123.823 57.3248 123.553 57.4334 123.227C57.5421 122.901 57.5161 122.545 57.3613 122.237L57.3201 122.162L57.3366 122.114C57.5252 122.109 57.7103 122.062 57.8787 121.977C58.1884 121.821 58.4231 121.548 58.5312 121.22C58.6392 120.891 58.6118 120.534 58.4549 120.225C58.298 119.917 58.0245 119.683 57.6945 119.576C57.3645 119.468 57.0052 119.495 56.6955 119.652C56.6345 119.682 56.5759 119.717 56.5202 119.756L56.178 119.426L49.9031 121.923L50.2185 122.19C50.0666 122.384 49.9734 122.618 49.9497 122.863C49.926 123.107 49.9727 123.354 50.0845 123.574Z" fill="black"/>
<path opacity="0.1" d="M53.9145 116.704L55.4297 121.593C55.5415 121.951 55.5113 122.339 55.3453 122.676C55.1794 123.013 54.8902 123.274 54.5371 123.405C54.3493 123.475 54.1492 123.505 53.9492 123.495C53.7491 123.485 53.5531 123.435 53.3733 123.347C53.1935 123.259 53.0336 123.135 52.9034 122.984C52.7731 122.832 52.6753 122.656 52.6158 122.465L51.1007 117.574C51.0427 117.385 51.024 117.185 51.0458 116.988C51.0675 116.791 51.1292 116.6 51.2271 116.428C51.325 116.255 51.4571 116.104 51.6153 115.983C51.7736 115.863 51.9548 115.776 52.1479 115.727C52.512 115.635 52.8978 115.685 53.2262 115.866C53.5547 116.048 53.801 116.348 53.9145 116.704Z" fill="black"/>
<path d="M53.8483 117.002L55.2233 121.386C55.324 121.707 55.297 122.055 55.1478 122.357C54.9986 122.659 54.7385 122.892 54.4214 123.009C54.253 123.071 54.0737 123.098 53.8944 123.089C53.7151 123.08 53.5396 123.035 53.3785 122.956C53.2174 122.877 53.0742 122.766 52.9576 122.63C52.8409 122.494 52.7533 122.336 52.7001 122.166L51.3334 117.78C51.2803 117.609 51.2628 117.429 51.2818 117.251C51.3008 117.073 51.3559 116.901 51.4438 116.745C51.5318 116.589 51.6507 116.453 51.7933 116.344C51.9359 116.236 52.0992 116.157 52.2734 116.113C52.6002 116.034 52.9448 116.082 53.2373 116.247C53.5298 116.413 53.7483 116.682 53.8483 117.002Z" fill="#3F3D56"/>
<path d="M71.7723 139.66C71.7723 139.66 78.9069 137.78 80.251 137.919C81.595 138.059 78.2122 131.485 75.9591 132.288C73.706 133.09 70.6983 135.196 68.9812 132.218C67.264 129.24 66.3013 127.639 64.2049 127.799C62.1084 127.959 59.2142 126.517 57.1218 127.799C55.0295 129.082 53.5617 130.658 50.6716 130.59C47.7815 130.523 45.046 124.111 42.7908 126.677C40.5356 129.242 37.8434 131.588 35.7284 130.736C33.6134 129.884 31.1933 131.165 29.2679 132.608C27.3425 134.051 23.9536 133.408 22.6714 132.288C21.3891 131.167 20.4182 130.363 17.6806 130.523C14.9431 130.683 6.25007 132.608 3.03013 135.011C-0.189812 137.414 7.21481 140.462 10.7584 140.462C14.302 140.462 14.9431 141.423 18.0022 142.865C21.0614 144.308 26.0541 142.065 29.5957 144.468C33.1372 146.872 37.6455 143.188 43.7638 144.468C49.8821 145.749 48.5937 147.514 52.1352 146.233C55.6768 144.953 54.3904 144.468 59.5419 144.148C64.6934 143.828 70.3293 144.951 70.8117 142.865C71.2941 140.78 74.512 140.302 76.4456 139.66C78.3792 139.017 71.7723 139.66 71.7723 139.66Z" fill="#3F3D56"/>
<path d="M11.2141 134.258C10.5957 133.127 11.2965 131.74 12.0964 130.732C12.8962 129.724 13.8733 128.68 13.8527 127.389C13.8218 125.542 11.8531 124.452 10.2803 123.471C9.11235 122.745 8.03556 121.883 7.07269 120.903C6.66854 120.527 6.33489 120.082 6.08734 119.59C5.76163 118.867 5.76988 118.047 5.79049 117.256C5.85783 114.621 5.98907 111.988 6.18422 109.357" stroke="#3F3D56" stroke-width="4" stroke-miterlimit="10"/>
<path d="M3.19329 109.213C3.21521 108.731 3.35891 108.262 3.61112 107.849C3.86333 107.437 4.21592 107.094 4.63629 106.853L5.28357 108.13L5.26297 106.584C5.57257 106.494 5.89507 106.455 6.2174 106.469C6.78679 106.497 7.33505 106.693 7.79304 107.031C8.25102 107.369 8.59821 107.834 8.7908 108.368C8.98338 108.903 9.01273 109.482 8.87514 110.032C8.73756 110.583 8.43922 111.081 8.01774 111.463C7.59626 111.845 7.07053 112.095 6.50688 112.18C5.94323 112.265 5.36691 112.182 4.85062 111.941C4.33433 111.7 3.90121 111.313 3.60589 110.827C3.31057 110.342 3.16629 109.78 3.19124 109.213H3.19329Z" fill="#57B793"/>
<path d="M8.35297 128.709C8.65644 129.294 9.15287 129.758 9.75905 130.023C10.3652 130.287 11.0443 130.336 11.6825 130.162C12.3207 129.987 12.8792 129.599 13.2645 129.063C13.6497 128.528 13.8383 127.876 13.7985 127.219C13.7587 126.561 13.4931 125.937 13.0461 125.451C12.5991 124.965 11.9979 124.646 11.3433 124.549C10.6887 124.452 10.0204 124.582 9.45044 124.917C8.8805 125.252 8.44354 125.772 8.21279 126.389L10.0207 127.861L8.03139 127.403C8.03343 127.858 8.14364 128.305 8.35297 128.709Z" fill="#57B793"/>
<path d="M9.78166 123.116C10.5002 123.166 11.2116 122.946 11.7759 122.501C12.3402 122.055 12.7166 121.415 12.8313 120.707C12.946 119.999 12.7906 119.274 12.3957 118.674C12.0007 118.074 11.3948 117.643 10.6969 117.466L10.7114 118.652L10.0579 117.361C9.6778 117.342 9.29762 117.398 8.93924 117.525C8.58086 117.653 8.25135 117.85 7.9697 118.104C7.68805 118.359 7.45981 118.667 7.29813 119.01C7.13644 119.353 7.04451 119.725 7.0276 120.103C7.01067 120.435 7.05253 120.768 7.15128 121.086C7.32562 121.653 7.67205 122.153 8.14302 122.517C8.61398 122.88 9.18639 123.089 9.78166 123.116Z" fill="#57B793"/>
<path d="M2.75801 118.463C3.2021 118.479 3.64398 118.393 4.04918 118.212C4.45437 118.03 4.81195 117.758 5.09404 117.416C5.37613 117.074 5.5751 116.672 5.67545 116.241C5.77581 115.81 5.77483 115.361 5.67259 114.931C5.57036 114.5 5.36963 114.099 5.08605 113.758C4.80247 113.418 4.44371 113.147 4.03773 112.967C3.63174 112.787 3.18951 112.703 2.74549 112.721C2.30146 112.739 1.86766 112.859 1.47787 113.072L1.9891 114.467L0.937768 113.462C0.374373 113.975 0.0385652 114.69 0.00395155 115.45C-0.00977325 115.717 0.0145125 115.985 0.0760961 116.245C0.218909 116.855 0.558285 117.402 1.04248 117.803C1.52667 118.203 2.12911 118.435 2.75801 118.463Z" fill="#57B793"/>
<path opacity="0.1" d="M3.5828 109.981C4.2507 110.053 4.90005 110.26 5.57001 110.301C6.23998 110.342 6.9759 110.184 7.39849 109.665C7.62731 109.386 7.74275 109.033 7.93446 108.727C8.11755 108.443 8.36821 108.208 8.66421 108.043C8.83877 108.407 8.93467 108.802 8.9457 109.205C8.95674 109.608 8.88265 110.008 8.72825 110.38C8.57385 110.752 8.34258 111.088 8.04946 111.366C7.75633 111.643 7.40788 111.856 7.02672 111.991C6.64556 112.126 6.2402 112.179 5.83693 112.148C5.43366 112.117 5.04148 112.002 4.68584 111.81C4.33021 111.618 4.01905 111.354 3.77256 111.034C3.52607 110.715 3.34976 110.348 3.25504 109.956C3.36361 109.96 3.47286 109.969 3.5828 109.981Z" fill="black"/>
<path opacity="0.1" d="M2.75828 118.463C3.25626 118.486 3.75157 118.379 4.19628 118.155C4.641 117.931 5.02008 117.596 5.29682 117.184C5.57357 116.771 5.73862 116.294 5.77602 115.799C5.81341 115.304 5.72189 114.808 5.51029 114.359C5.27982 114.51 5.08101 114.705 4.92484 114.931C4.7187 115.241 4.59295 115.6 4.34971 115.884C3.90032 116.411 3.1314 116.583 2.43257 116.553C1.73375 116.522 1.05968 116.323 0.371166 116.259C0.274279 116.259 0.165015 116.245 0.0784354 116.243C0.22076 116.853 0.559657 117.401 1.04347 117.801C1.52728 118.202 2.12947 118.435 2.75828 118.463Z" fill="black"/>
<path opacity="0.1" d="M9.78138 123.116C10.2754 123.14 10.7673 123.038 11.21 122.818C11.6527 122.598 12.0313 122.269 12.3094 121.862C12.5876 121.455 12.756 120.983 12.7984 120.493C12.8409 120.002 12.756 119.509 12.5519 119.061C12.3114 119.216 12.1018 119.414 11.9335 119.645C11.7088 119.962 11.5686 120.327 11.3151 120.618C10.8265 121.158 10.0061 121.349 9.26602 121.332C8.52597 121.316 7.86013 121.142 7.14894 121.086C7.32339 121.654 7.67013 122.154 8.1415 122.517C8.61288 122.881 9.18575 123.09 9.78138 123.116Z" fill="black"/>
<path opacity="0.1" d="M8.35273 128.709C8.66573 129.405 9.2437 129.949 9.95947 130.221C10.6752 130.492 11.4702 130.47 12.1695 130.159C12.8687 129.847 13.415 129.272 13.6881 128.559C13.9612 127.846 13.9389 127.055 13.6259 126.359C13.3881 126.515 13.1748 126.705 12.993 126.923C12.7168 127.256 12.5354 127.635 12.2179 127.949C11.6263 128.528 10.6718 128.77 9.82046 128.789C9.33006 128.791 8.83995 128.764 8.35273 128.709Z" fill="black"/>
<path d="M15.5781 132.955C15.5781 132.955 13.2941 132.885 12.6056 132.397C11.917 131.908 9.10114 131.327 8.9218 132.109C8.74246 132.891 5.49159 136.009 8.06837 136.021C10.6451 136.033 14.0589 135.623 14.7453 135.2C15.4318 134.777 15.5781 132.955 15.5781 132.955Z" fill="#656380"/>
<path opacity="0.2" d="M8.01666 135.75C10.5955 135.771 14.0072 135.34 14.6936 134.929C15.2172 134.611 15.4254 133.474 15.4955 132.949H15.5718C15.5718 132.949 15.4275 134.784 14.7472 135.206C14.0669 135.629 10.6491 136.042 8.07026 136.027C7.32609 136.027 7.07047 135.758 7.08284 135.368C7.19209 135.598 7.46833 135.744 8.01666 135.75Z" fill="black"/>
<path d="M133.7 36.7739C133.714 36.6245 133.692 36.4738 133.636 36.3347C133.469 36.0392 133.032 36.1192 132.702 36.2034C131.374 36.5358 129.977 36.2341 128.612 36.3121C127.247 36.3901 125.707 37.0694 125.433 38.4035C124.442 37.7041 123.587 36.8297 122.912 35.8237C122.533 35.2593 122.203 34.6128 122.255 33.9355C122.329 32.9586 123.151 32.228 123.914 31.6082L126.182 29.761C126.48 29.4876 126.825 29.2693 127.2 29.1166C127.723 28.9381 128.297 29.0222 128.849 29.0222C130.498 29.0222 132.265 28.2752 133.737 29.0222C134.355 29.3362 134.813 29.8739 135.258 30.3993L137.286 32.7903C137.44 32.9424 137.551 33.1311 137.61 33.3383C137.668 33.6297 137.517 33.917 137.466 34.2105C137.369 34.7441 137.602 35.3126 137.422 35.8257C137.128 36.6774 136.091 36.7985 135.456 37.2849C135.219 37.4676 134.848 38.0833 134.567 38.0771C134.064 38.071 133.714 37.1659 133.7 36.7739Z" fill="#3F3D56"/>
<path d="M133.366 42.4836C133.389 43.1485 133.778 43.7396 134.153 44.2917C134.654 45.0264 135.184 45.7899 135.976 46.2004C131.997 48.2917 127.363 48.7782 123.034 47.559C122.339 47.3538 121.519 46.9269 121.56 46.2065C122.385 45.9828 123.238 45.7509 123.939 45.2563C124.776 44.6652 125.328 43.7458 125.685 42.7935C126.042 41.8412 126.223 40.8232 126.472 39.8319C126.489 39.7303 126.533 39.6351 126.6 39.5569C126.714 39.4761 126.853 39.4395 126.992 39.4543L129.738 39.4051C130.865 39.4051 132.09 39.3784 133.137 39.8545C134.44 40.4497 133.329 41.3794 133.366 42.4836Z" fill="#FFC0C6"/>
<path opacity="0.1" d="M133.366 42.4836C133.389 43.1485 133.778 43.7396 134.153 44.2917C134.654 45.0264 135.184 45.7899 135.976 46.2004C131.997 48.2917 127.363 48.7782 123.034 47.559C122.339 47.3538 121.519 46.9269 121.56 46.2065C122.385 45.9828 123.238 45.7509 123.939 45.2563C124.776 44.6652 125.328 43.7458 125.685 42.7935C126.042 41.8412 126.223 40.8232 126.472 39.8319C126.489 39.7303 126.533 39.6351 126.6 39.5569C126.714 39.4761 126.853 39.4395 126.992 39.4543L129.738 39.4051C130.865 39.4051 132.09 39.3784 133.137 39.8545C134.44 40.4497 133.329 41.3794 133.366 42.4836Z" fill="black"/>
<path d="M135.755 136.119C136.431 137.146 137.315 138.014 138.058 138.993C138.8 139.972 139.42 141.113 139.428 142.338C139.438 142.416 139.431 142.495 139.406 142.57C139.381 142.644 139.341 142.712 139.286 142.769C139.202 142.823 139.104 142.854 139.004 142.857L136.138 143.223C135.703 143.298 135.259 143.313 134.819 143.268C134.346 143.175 133.889 143.009 133.467 142.777C133.144 142.651 132.863 142.438 132.655 142.162C132.517 141.936 132.479 141.659 132.347 141.429C131.95 140.733 130.948 140.764 130.152 140.885C129.923 138.769 130.511 136.659 131.094 134.611C131.119 134.485 131.174 134.367 131.253 134.266C131.357 134.166 131.486 134.096 131.626 134.061C132.312 133.837 133.972 132.961 134.549 133.371C134.972 133.675 135.413 135.576 135.755 136.119Z" fill="#575A88"/>
<path d="M121.939 140.292C121.389 140.035 120.802 139.705 120.208 139.84C119.371 140.027 118.998 141.012 118.287 141.482C117.85 141.776 117.309 141.862 116.788 141.93C115.182 142.137 113.563 142.232 111.944 142.215C111.426 142.215 110.775 142.092 110.649 141.599C110.523 141.107 110.999 140.715 111.422 140.458C112.339 139.898 113.295 139.403 114.283 138.978C114.769 138.8 115.228 138.557 115.648 138.256C116.355 137.688 116.699 136.797 117.015 135.949C117.268 135.268 117.501 133.796 118.021 133.281C118.59 132.725 119.354 133.094 120.068 133.25C121.177 133.493 122.475 133.661 123.189 134.652C124.232 136.103 125.034 141.718 121.939 140.292Z" fill="#575A88"/>
<path d="M138.33 74.7996C139.277 77.1198 139.797 79.5903 139.867 82.0937C139.917 83.9633 139.715 85.8269 139.511 87.6863C139.185 90.6964 138.858 93.7065 138.53 96.7166C138.425 97.9684 138.227 99.2107 137.938 100.433C137.581 101.798 137.002 103.101 136.588 104.444C135.306 108.626 135.67 113.137 136.518 117.429C136.63 117.9 136.69 118.382 136.695 118.865C136.67 119.59 136.39 120.28 136.208 120.981C135.099 125.261 137.651 130.012 135.986 134.116C135.944 134.263 135.851 134.39 135.724 134.476C135.64 134.507 135.551 134.521 135.462 134.517C135.373 134.513 135.285 134.491 135.205 134.453C134.73 134.289 134.275 134.074 133.846 133.813C132.949 134.894 131.789 135.729 130.478 136.241C129.501 136 129.317 134.818 128.998 133.868C128.754 133.193 128.556 132.503 128.404 131.801C128.263 130.941 128.19 130.071 128.187 129.199L127.342 99.5735L127.404 108.614C127.434 109.346 127.387 110.079 127.266 110.802C127.142 111.403 126.916 111.98 126.786 112.581C126.602 113.441 126.625 114.332 126.633 115.212C126.685 120.434 126.205 125.648 125.2 130.773C124.871 132.452 124.475 134.147 123.632 135.635C123.604 135.703 123.562 135.765 123.509 135.817C123.457 135.868 123.394 135.909 123.325 135.935C123.145 135.974 122.98 135.832 122.844 135.707C122.03 134.99 121.012 134.543 119.932 134.426C118.851 134.309 117.76 134.528 116.81 135.054C116.992 134.184 116.159 133.172 116.755 132.511C116.926 132.321 117.182 132.228 117.373 132.062C117.753 131.74 117.843 131.198 117.897 130.703C118.131 128.502 118.131 126.282 117.897 124.08C117.606 121.328 116.953 118.554 117.435 115.83C117.786 113.854 118.73 111.931 118.542 109.942C118.418 108.608 117.796 107.379 117.367 106.108C115.495 100.554 117.367 94.3646 116.013 88.6632C115.701 87.3538 115.231 85.9377 115.796 84.7166L114.937 84.4559L116.722 80.3984C117.101 79.5344 117.497 78.6457 118.165 77.9808C119.286 76.8705 120.962 76.5729 122.527 76.3389L135.254 74.3625C136.382 74.1798 137.903 73.7571 138.33 74.7996Z" fill="#3C354C"/>
<path d="M130.317 42.4546C127.308 42.4546 124.868 40.0261 124.868 37.0303C124.868 34.0345 127.308 31.606 130.317 31.606C133.326 31.606 135.765 34.0345 135.765 37.0303C135.765 40.0261 133.326 42.4546 130.317 42.4546Z" fill="#FFC0C6"/>
<path d="M133.287 43.4891C133.552 43.3335 133.864 43.2787 134.166 43.3352C134.314 43.3878 134.453 43.4633 134.578 43.5589L137.155 45.3567C137.524 45.5851 137.853 45.8721 138.13 46.2064C138.571 46.8037 138.641 47.5979 138.583 48.3367C138.455 50.0032 137.779 51.5753 137.412 53.2049C137.045 54.8345 137.045 56.6939 138.101 57.9992C138.282 58.1864 138.434 58.4003 138.55 58.6333C138.613 58.8324 138.642 59.0405 138.635 59.249C138.673 60.0291 138.656 60.8109 138.585 61.5887C138.47 62.5923 138.173 63.5672 138.012 64.5626C137.73 66.2578 137.806 67.9961 137.588 69.6934C137.597 69.8069 137.583 69.9212 137.546 70.029C137.509 70.1368 137.45 70.2358 137.372 70.3196C137.295 70.4033 137.201 70.4701 137.096 70.5157C136.991 70.5612 136.877 70.5845 136.763 70.5841C135.489 70.7698 134.202 70.8542 132.914 70.8366C131.424 70.8366 129.936 70.7545 128.447 70.6765L121.673 70.3214C121.577 70.3338 121.479 70.325 121.386 70.2957C121.294 70.2664 121.208 70.2173 121.137 70.1518C121.065 70.0863 121.009 70.006 120.971 69.9166C120.934 69.8271 120.917 69.7307 120.921 69.6339C120.327 66.7976 119.73 63.9099 120.01 61.0284C120.191 59.167 120.735 57.3629 121.247 55.5651C121.659 54.1079 122.055 52.5789 121.746 51.0951C121.539 50.1161 121.039 49.211 120.909 48.2218C120.834 47.707 120.879 47.1819 121.04 46.6872C121.202 46.1925 121.476 45.7415 121.84 45.3691C122.599 44.6446 123.706 44.3696 124.463 43.643C124.67 43.4081 124.896 43.1899 125.139 42.9904C125.262 42.8923 125.411 42.8306 125.568 42.8125C125.725 42.7944 125.884 42.8204 126.027 42.8878C126.167 42.9863 126.282 43.1146 126.365 43.2634C127.025 44.2608 128.014 45.9047 129.406 45.6461C130.911 45.3773 131.962 44.1253 133.287 43.4891Z" fill="#6C63FF"/>
<path d="M119.674 80.1604C120.156 80.5196 120.515 81.1578 120.292 81.714C119.637 81.8304 118.961 81.737 118.363 81.4472C117.977 81.2605 117.497 80.9978 117.163 81.2687C117.055 81.3723 116.971 81.4984 116.918 81.6381C116.556 82.4006 116.119 83.1246 115.611 83.7992C115.244 83.6268 114.858 83.438 114.638 83.0994C114.505 82.8687 114.419 82.6141 114.384 82.3503C114.255 81.6899 114.159 81.0234 114.098 80.3533C114.054 79.8669 114.046 79.3272 114.38 78.9659C115.813 77.4267 118.484 79.2758 119.674 80.1604Z" fill="#FFC0C6"/>
<path d="M134.04 34.7378C134.055 34.5891 134.033 34.4391 133.976 34.3007C133.809 34.0051 133.372 34.0954 133.042 34.1673C131.715 34.5018 130.317 34.2001 128.952 34.2781C127.588 34.3561 126.048 35.0354 125.774 36.3694C124.782 35.6697 123.927 34.7954 123.25 33.7896C122.871 33.2252 122.541 32.5788 122.593 31.9015C122.667 30.9246 123.49 30.1939 124.252 29.5741L126.52 27.727C126.818 27.4542 127.163 27.2366 127.538 27.0846C128.062 26.9061 128.635 26.9902 129.187 26.9902C130.836 26.9902 132.603 26.2432 134.075 26.9902C134.693 27.3063 135.151 27.844 135.598 28.3694L137.625 30.7604C137.778 30.9121 137.89 31.0999 137.95 31.3063C138.008 31.5977 137.858 31.8871 137.804 32.1785C137.709 32.7122 137.94 33.2827 137.763 33.7958C137.468 34.6475 136.429 34.7665 135.794 35.255C135.557 35.4377 135.188 36.0534 134.906 36.0452C134.405 36.037 134.054 35.1319 134.04 34.7378Z" fill="#3F3D56"/>
<path d="M120.585 45.7406C120.014 45.6065 119.422 45.5919 118.846 45.6979C118.27 45.8039 117.722 46.0281 117.237 46.3563C115.679 47.4194 115.038 49.3609 114.495 51.1628L113.281 55.2039C112.749 56.9751 112.213 58.7627 112.09 60.6077C111.976 62.2845 112.207 63.9633 112.438 65.6277C112.758 67.9325 112.005 70.459 111.995 72.7843C111.995 75.4523 112.011 78.2825 113.376 80.5832C113.433 80.3819 113.537 80.1972 113.681 80.0446C113.824 79.8921 114.003 79.7762 114.201 79.7068C114.596 79.5726 115.01 79.5033 115.427 79.5016L119.055 79.2697C118.746 78.7495 118.48 78.2052 118.26 77.6422C116.868 74.0834 117.402 70.106 117.957 66.3296C118 65.9696 118.069 65.613 118.163 65.2624C118.528 63.9153 118.612 62.5076 118.408 61.127C118.325 60.5025 118.304 59.8715 118.344 59.2429C118.35 58.9775 118.407 58.7157 118.511 58.4712C118.618 58.2701 118.752 58.085 118.911 57.9212L119.645 57.1003C119.705 54.6169 120.096 52.1151 120.484 49.6605C120.672 48.3623 120.706 47.0466 120.585 45.7406Z" fill="#6C63FF"/>
<path d="M127.713 56.7062C131.237 53.9838 133.585 50.025 134.277 45.6379C134.396 44.8601 134.708 43.8442 135.497 43.8708C135.736 43.8961 135.966 43.9762 136.169 44.1048L139.03 45.6317C139.235 45.7145 139.409 45.8578 139.529 46.0422C139.717 46.4075 139.451 46.8283 139.222 47.1689C137.682 49.4881 137.573 52.4332 137.511 55.2121C137.493 56.033 137.486 56.8971 137.884 57.6154C138.208 58.1962 138.771 58.6231 139.068 59.2203C139.346 59.7806 139.358 60.4291 139.366 61.0551C139.424 65.521 139.482 69.993 139.247 74.4548C139.212 75.128 139.158 75.834 138.797 76.4046C138.461 76.932 137.907 77.2727 137.371 77.5949L133.032 80.2055C132.207 80.7042 131.35 81.2111 130.395 81.3712C129.441 81.5313 128.35 81.2604 127.802 80.4661C127.536 80.0803 127.418 79.6103 127.163 79.2183C126.907 78.8263 126.419 78.5082 125.984 78.6827C125.674 78.8058 125.505 79.128 125.365 79.4256C125.089 79.9941 124.8 80.577 124.349 81.0223C123.898 81.4677 123.244 81.7673 122.624 81.638C122.088 81.521 121.669 81.1167 121.284 80.7309C120.092 79.5426 118.888 78.3379 118.012 76.8992C117.886 76.732 117.821 76.5273 117.827 76.3184C117.883 76.1151 117.993 75.9307 118.146 75.7848C118.695 75.1157 118.911 74.2393 119.074 73.3897C120.704 64.8519 118.402 55.9776 119.67 47.3783C119.814 46.3932 120.131 45.4881 120.873 44.8211C121.616 44.1541 122.539 43.7292 123.448 43.3147C123.747 43.1792 124.089 43.0396 124.394 43.1628C124.899 43.368 124.901 44.0597 124.864 44.5994C124.821 45.7056 124.877 46.8133 125.029 47.9098L125.472 51.9714C125.515 52.5918 125.631 53.205 125.819 53.798C126.209 54.9038 126.858 55.9009 127.713 56.7062Z" fill="#575A88"/>
<path d="M152.988 24.4372C152.988 24.4372 154.561 25.7097 156.419 22.3726C158.276 19.0355 167.245 11.0149 167.245 11.0149C167.245 11.0149 168.406 9.95796 163.996 8.19705C159.587 6.43614 153.566 0 153.566 0C153.566 0 143.518 8.89279 142.535 13.2971C141.552 17.7014 143.704 18.4485 147.398 20.7882C151.092 23.1278 152.988 24.4372 152.988 24.4372Z" fill="#3F3D56"/>
<path d="M124.192 67.0273L149.548 21.5331L147.396 20.7881L122.469 66.0853C122.406 66.2001 122.367 66.3262 122.354 66.4563C122.341 66.5863 122.354 66.7176 122.392 66.8426C122.431 66.9676 122.494 67.0837 122.578 67.1841C122.662 67.2846 122.765 67.3673 122.881 67.4276C123.109 67.544 123.374 67.5673 123.618 67.4925C123.863 67.4178 124.069 67.2509 124.192 67.0273Z" fill="#656380"/>
<path d="M134.605 55.4133C133.941 53.9993 134.621 52.3677 135.075 50.8736C135.436 49.6861 135.651 48.4594 135.716 47.2204C135.759 46.8306 135.715 46.436 135.588 46.0649C135.521 45.8809 135.402 45.7199 135.245 45.601C135.089 45.482 134.902 45.4102 134.706 45.3938C134.114 46.2754 133.877 47.3469 134.044 48.3943C133.66 48.2957 133.27 48.2197 132.877 48.1665C132.368 48.0983 131.85 48.2114 131.416 48.4859C130.982 48.7603 130.659 49.1785 130.505 49.6668C129.851 51.752 129.628 53.9767 130.54 55.9264C130.83 56.5034 131.167 57.056 131.548 57.5785L133.535 60.4682C133.671 60.6735 133.838 60.8787 134.077 60.9136C134.316 60.9485 134.566 60.733 134.741 60.5339C135.345 59.8546 136.417 58.8654 136.299 57.9295C136.182 56.9936 135 56.2445 134.605 55.4133Z" fill="#FFC0C6"/>
<path d="M139.197 46.6969C141.216 46.4691 143.526 47.0129 144.582 48.7492C145.112 49.6256 145.244 50.6764 145.336 51.6943C145.466 53.1207 145.542 54.5512 145.615 55.9796L146.004 63.4994C146.052 64.3983 146.097 65.2993 146.113 66.1982C146.16 66.901 146.084 67.6065 145.889 68.2834C145.639 69.012 145.145 69.6277 144.652 70.227C144.159 70.8262 143.543 71.444 142.819 71.2696C142.523 71.1722 142.254 71.007 142.034 70.7873L140.385 69.367C139.263 68.4086 138.13 67.4358 137.276 66.2331C136.864 65.6543 136.526 65.0284 136.109 64.4537C134.885 62.7626 133.001 61.4799 132.356 59.4973C132.974 59.4645 133.873 59.2613 134.157 58.7154C134.308 58.426 134.328 58.0812 134.495 57.8041C134.749 57.3814 135.32 57.1515 135.404 56.6671C137.025 57.9663 138.381 59.4747 139.676 61.094L139.15 59.0602C139.113 58.8691 139.034 58.6889 138.917 58.5327C138.733 58.3719 138.524 58.241 138.299 58.1448C137.658 57.759 137.414 56.9606 137.284 56.2259C136.705 52.9232 137.387 49.5241 139.197 46.6969Z" fill="#6C63FF"/>
</g>
<defs>
<clipPath id="clip0_1_4170">
<rect width="176" height="149" fill="white" transform="matrix(-1 0 0 1 176 0)"/>
</clipPath>
</defs>
</svg>
