<svg width="20" height="20" viewBox="0 0 20 20" fill="none" xmlns="http://www.w3.org/2000/svg">
<path d="M17.8627 2.15173C17.4458 1.72391 16.8289 1.56453 16.2537 1.7323L2.83983 5.63302C2.23292 5.80163 1.80274 6.28565 1.68686 6.90054C1.56848 7.52633 1.98198 8.32074 2.5222 8.65293L6.71642 11.2308C7.1466 11.495 7.70183 11.4287 8.0578 11.0697L12.8606 6.237C13.1024 5.98534 13.5025 5.98534 13.7443 6.237C13.9861 6.48027 13.9861 6.87454 13.7443 7.1262L8.93316 11.9597C8.57635 12.3179 8.50966 12.8758 8.77226 13.3086L11.335 17.5449C11.6351 18.0482 12.152 18.3334 12.7189 18.3334C12.7856 18.3334 12.8606 18.3334 12.9273 18.325C13.5776 18.2411 14.0944 17.7965 14.2862 17.1674L18.2628 3.77074C18.4379 3.20031 18.2795 2.57955 17.8627 2.15173Z" fill="#EC3F2E"/>
</svg>
