<svg width="21" height="21" viewBox="0 0 21 21" fill="none" xmlns="http://www.w3.org/2000/svg">
<path opacity="0.4" d="M11.3134 3.0946L13.1688 6.82316C13.3055 7.0933 13.5664 7.28089 13.8673 7.32258L18.0349 7.92956C18.2782 7.96374 18.4991 8.09214 18.6483 8.28807C18.7959 8.4815 18.8592 8.72663 18.8234 8.96758C18.7942 9.16769 18.7 9.35278 18.5558 9.49452L15.536 12.4218C15.3151 12.6261 15.2151 12.9288 15.2684 13.2247L16.0119 17.3402C16.0911 17.8371 15.7619 18.3057 15.2684 18.3999C15.0651 18.4324 14.8567 18.3982 14.6733 18.3048L10.9558 16.368C10.68 16.2288 10.354 16.2288 10.0782 16.368L6.36069 18.3048C5.90393 18.5475 5.33797 18.3824 5.08375 17.9321C4.98956 17.7529 4.95622 17.5486 4.98706 17.3493L5.73056 13.2331C5.7839 12.9379 5.68305 12.6336 5.463 12.4293L2.44318 9.50369C2.08394 9.15685 2.07311 8.58572 2.41901 8.22637C2.42651 8.21887 2.43485 8.21053 2.44318 8.20219C2.58655 8.05629 2.77492 7.96374 2.9783 7.93956L7.14586 7.33175C7.44593 7.28923 7.70681 7.1033 7.84434 6.8315L9.63306 3.0946C9.79226 2.77443 10.1223 2.57517 10.4807 2.5835H10.5924C10.9033 2.62102 11.1742 2.81362 11.3134 3.0946Z" fill="#FF981F"/>
<path d="M10.4932 16.2642C10.3318 16.2692 10.1745 16.3126 10.0331 16.3901L6.33377 18.3225C5.88114 18.5385 5.33947 18.3709 5.0857 17.9381C4.99168 17.7612 4.95756 17.5586 4.98918 17.3601L5.72804 13.2525C5.77796 12.954 5.67812 12.6504 5.46095 12.4402L2.43978 9.51532C2.08117 9.16419 2.07452 8.58789 2.42564 8.22843C2.43063 8.22342 2.43479 8.21925 2.43978 8.21508C2.5829 8.0733 2.76761 7.97989 2.96647 7.9507L7.13753 7.33686C7.43956 7.2985 7.70166 7.11001 7.83479 6.83645L9.64782 3.05252C9.82005 2.74727 10.1504 2.56545 10.4998 2.58463C10.4932 2.83234 10.4932 16.0957 10.4932 16.2642Z" fill="#FF981F"/>
</svg>
