<svg width="25" height="24" viewBox="0 0 25 24" fill="none" xmlns="http://www.w3.org/2000/svg">
<path d="M12.1201 16.6766V14.1396" stroke="#9E9E9E" stroke-width="1.5" stroke-linecap="round" stroke-linejoin="round"/>
<path fill-rule="evenodd" clip-rule="evenodd" d="M18.315 5.33008C20.005 5.33008 21.365 6.70008 21.365 8.39008V11.8301C18.905 13.2701 15.655 14.1401 12.115 14.1401C8.575 14.1401 5.335 13.2701 2.875 11.8301V8.38008C2.875 6.69008 4.245 5.33008 5.935 5.33008H18.315Z" stroke="#9E9E9E" stroke-width="1.5" stroke-linecap="round" stroke-linejoin="round"/>
<path d="M15.6201 5.32576V4.95976C15.6201 3.73976 14.6301 2.74976 13.4101 2.74976H10.8301C9.61012 2.74976 8.62012 3.73976 8.62012 4.95976V5.32576" stroke="#9E9E9E" stroke-width="1.5" stroke-linecap="round" stroke-linejoin="round"/>
<path d="M2.89941 15.4829L3.08841 17.9919C3.21641 19.6829 4.62541 20.9899 6.32041 20.9899H17.9194C19.6144 20.9899 21.0234 19.6829 21.1514 17.9919L21.3404 15.4829" stroke="#9E9E9E" stroke-width="1.5" stroke-linecap="round" stroke-linejoin="round"/>
</svg>
